<?xml version="1.0" encoding="utf-8"?>
<!-- Generator: Adobe Illustrator 16.0.4, SVG Export Plug-In . SVG Version: 6.00 Build 0)  -->
<!DOCTYPE svg PUBLIC "-//W3C//DTD SVG 1.1//EN" "http://www.w3.org/Graphics/SVG/1.1/DTD/svg11.dtd">
<svg version="1.1" id="Layer_1" xmlns="http://www.w3.org/2000/svg" xmlns:xlink="http://www.w3.org/1999/xlink" x="0px" y="0px"
	 width="50px" height="50px" viewBox="0 0 50 50" enable-background="new 0 0 50 50" xml:space="preserve">
<g>
	<path d="M18.873,23.381c-0.039-0.373-0.244-0.779-0.234-1.109c0.974,0.701,1.559,1.715,1.576,3.211
		c0.002,0.193-0.02,0.392-0.05,0.591c0,0,0.48,2.208,3.656,2c1.552-0.103,3.03-0.841,3.03-0.841
		c-0.519-2.899-2.613-6.826-2.375-10.098c0.024-0.324,0.072-0.751,0.175-1.107c0.092-0.317,0.37-0.603,0.35-0.935
		c-1.954,0.931-3.406,2.658-3.327,5.429c-1.668-1.848-3.43-4.354-3.619-7.764c-0.106-1.914,0.44-3.142,0.875-4.611
		c-0.058,0-0.117,0-0.175,0c-2.807,1.713-4.435,4.979-3.736,9.397c0.164,1.036,0.608,2.165,0.584,3.327
		c-0.027,1.271-0.384,2.21-0.934,3.15c0.516-2.852-0.281-5.887-2.393-6.828c0.239,2.154,0.389,3.904-0.35,5.369
		c-0.181,0.358-0.448,0.668-0.642,0.992c-0.588,0.984-1.073,2.166-1.284,3.619c0,0.467,0,0.934,0,1.401
		c0.477,3.053,2.644,4.711,5.487,5.545c0.376,0.108,0.829,0.383,1.226,0.174c-1.008-0.606-1.914-1.299-2.043-2.626
		c-0.204-2.089,1.567-3.861,0.992-6.012c0.719,0.453,1.351,1.289,1.109,2.51c0.345,0.062,0.554-0.376,0.759-0.643
		C18.261,26.574,19.062,25.225,18.873,23.381z"/>
	<path d="M18.706,27.048c0,4.312,0,8.626,0,12.938c7.099,6.47,14.197-6.471,21.294,0c0-4.312,0-8.627,0-12.938
		C32.901,20.579,25.803,33.518,18.706,27.048z M29.354,38.3c-2.643,1.308-4.783-0.353-4.783-3.044c0-2.59,2.141-5.215,4.783-6.521
		c2.643-1.309,4.781,0.353,4.781,3.043C34.135,34.369,31.994,36.992,29.354,38.3z"/>
	<path d="M30.865,32.761c-0.23-0.061-0.666-0.038-1.311,0.075c0-0.676,0-1.352,0-2.025c0.382-0.16,0.66-0.14,0.836,0.063
		c0.094,0.11,0.15,0.269,0.17,0.47c0.242-0.105,0.486-0.21,0.729-0.31c-0.015-0.464-0.168-0.78-0.463-0.938
		c-0.296-0.16-0.72-0.135-1.271,0.077c0-0.182,0-0.362,0-0.544c-0.133,0.061-0.264,0.12-0.396,0.18c0,0.186,0,0.369,0,0.553
		c-0.557,0.262-0.99,0.625-1.3,1.097s-0.464,0.912-0.464,1.335c0,0.471,0.145,0.782,0.432,0.926
		c0.286,0.145,0.731,0.137,1.332-0.023c0,0.757,0,1.513,0,2.269c-0.469,0.175-0.789,0.144-0.963-0.096
		c-0.099-0.132-0.158-0.382-0.18-0.753c-0.246,0.105-0.491,0.21-0.736,0.31c0,0.478,0.079,0.823,0.236,1.039
		c0.289,0.399,0.837,0.448,1.645,0.132c0,0.271,0,0.539,0,0.809c0.131-0.061,0.264-0.12,0.396-0.18c0-0.271,0-0.539,0-0.809
		c0.502-0.284,0.886-0.568,1.151-0.854c0.48-0.521,0.721-1.139,0.721-1.877C31.426,33.174,31.24,32.861,30.865,32.761z
		 M29.16,32.938c-0.312,0.08-0.558,0.084-0.74,0.011c-0.184-0.074-0.274-0.25-0.274-0.523c0-0.229,0.078-0.479,0.231-0.756
		c0.156-0.276,0.418-0.506,0.783-0.687C29.16,31.634,29.16,32.286,29.16,32.938z M30.537,34.843
		c-0.181,0.402-0.508,0.722-0.981,0.96c0-0.729,0-1.459,0-2.188c0.347-0.063,0.593-0.074,0.739-0.034
		c0.256,0.067,0.383,0.274,0.383,0.622C30.678,34.421,30.631,34.634,30.537,34.843z"/>
</g>
</svg>
